<svg data-name="Group 12" xmlns="http://www.w3.org/2000/svg" width="23.787" height="23.787" viewBox="0 0 23.787 23.787">
    <defs>
        <clipPath id="nm64tf5dca">
            <path data-name="Rectangle 6" style="fill:#fff" d="M0 0h23.787v23.787H0z"/>
        </clipPath>
    </defs>
    <g data-name="Group 11" style="clip-path:url(#nm64tf5dca)">
        <path data-name="Path 6" d="M23.656 40.751a4.125 4.125 0 0 0-5.827 0L16.3 42.283a2.176 2.176 0 0 0-2.177-2.169H8.371a1.853 1.853 0 0 0-1.319.546l-3.523 3.524-.517-.517a.445.445 0 0 0-.63 0L.13 45.918a.445.445 0 0 0 0 .63l6.594 6.594a.446.446 0 0 0 .63 0l2.252-2.252a.445.445 0 0 0 0-.629l-.393-.393 1.556-1.556a.569.569 0 0 1 .4-.167h4.739a2.352 2.352 0 0 0 1.674-.693l6.07-6.07a.445.445 0 0 0 0-.629M7.04 52.2l-5.966-5.967L2.7 44.611l5.965 5.965zm9.917-5.376a1.467 1.467 0 0 1-1.044.432h-4.74a1.453 1.453 0 0 0-1.034.428l-1.555 1.554-4.419-4.432 3.516-3.516a.969.969 0 0 1 .69-.29h5.749a1.287 1.287 0 0 1 1.28 1.419 1.338 1.338 0 0 1-1.355 1.159h-2.808a.445.445 0 0 0 0 .89h3.949a.445.445 0 0 0 .315-.131l2.958-2.958a3.235 3.235 0 0 1 4.232-.293z" transform="translate(0 -29.485)" style="fill:#fff"/>
        <path data-name="Path 7" d="M34 8.7a4.352 4.352 0 1 0-4.352-4.352A4.357 4.357 0 0 0 34 8.7m0-7.81a3.462 3.462 0 1 1-3.462 3.462A3.466 3.466 0 0 1 34 .89" transform="translate(-22.102)" style="fill:#fff"/>
        <path data-name="Path 8" d="M41.971 11.362a2 2 0 0 1-1.287-.5l-.547.655a2.558 2.558 0 0 0 1.412.632v.376h.592v-.359C42.99 12.1 43.5 11.63 43.5 10.9s-.564-.985-1.44-1.173c-.581-.125-.769-.2-.769-.444 0-.193.177-.341.49-.341a1.874 1.874 0 0 1 1.116.415l.5-.695a2.263 2.263 0 0 0-1.252-.518v-.357h-.592v.359a1.251 1.251 0 0 0-1.235 1.235c0 .786.62 1.013 1.457 1.2.569.137.752.188.752.421 0 .211-.188.359-.552.359" transform="translate(-29.926 -5.806)" style="fill:#fff"/>
    </g>
</svg>
