<?xml version="1.0" encoding="UTF-8"?>
<svg xmlns="http://www.w3.org/2000/svg" width="48.091" height="51.696" viewBox="0 0 48.091 51.696">
    <defs>
        <clipPath id="61gzp0ncya">
            <path data-name="Rectangle 3" style="fill:#fff" d="M0 0h48.091v51.696H0z"/>
        </clipPath>
    </defs>
    <g data-name="Group 3">
        <path data-name="Path 1" d="m8.331 886.4-2.717 4.614-2.736-4.614H0l4.287 7.134v4.551H6.86V893.6l4.336-7.2z" transform="translate(0 -846.654)" style="fill:#fff"/>
        <g data-name="Group 2">
            <g data-name="Group 1" style="clip-path:url(#61gzp0ncya)">
                <path data-name="Path 2" d="M260.595 883.94a5.751 5.751 0 0 1 1.13-1.955 5.226 5.226 0 0 1 1.807-1.309 6.383 6.383 0 0 1 4.834 0 5.251 5.251 0 0 1 1.8 1.309 5.869 5.869 0 0 1 1.13 1.955 7.347 7.347 0 0 1 .395 2.43 6.982 6.982 0 0 1-.395 2.381 5.65 5.65 0 0 1-1.13 1.924 5.209 5.209 0 0 1-1.8 1.287 6.5 6.5 0 0 1-4.834 0 5.128 5.128 0 0 1-1.807-1.287 5.723 5.723 0 0 1-1.13-1.924 7.092 7.092 0 0 1-.395-2.381 7.465 7.465 0 0 1 .395-2.43m2.35 3.861a3.89 3.89 0 0 0 .547 1.251 2.809 2.809 0 0 0 .982.892 3.4 3.4 0 0 0 2.951 0 2.808 2.808 0 0 0 .982-.892 3.836 3.836 0 0 0 .547-1.251 5.836 5.836 0 0 0 .17-1.43 6.532 6.532 0 0 0-.17-1.489 4 4 0 0 0-.547-1.287 2.791 2.791 0 0 0-.982-.9 3.4 3.4 0 0 0-2.951 0 2.791 2.791 0 0 0-.982.9 3.9 3.9 0 0 0-.547 1.287 6.289 6.289 0 0 0-.17 1.489 6.063 6.063 0 0 0 .17 1.43" transform="translate(-248.533 -840.732)" style="fill:#fff"/>
                <path data-name="Path 3" d="M535.1 888.561V886.4h9.573v2.161h-3.5v9.529h-2.569v-9.529z" transform="translate(-511.106 -846.654)" style="fill:#fff"/>
                <path data-name="Path 4" d="M787.344 886.4v2.161h-6.17v2.507h5.663v2h-5.663v2.865h6.3v2.161H778.6V886.4h8.744z" transform="translate(-743.687 -846.654)" style="fill:#fff"/>
                <path data-name="Rectangle 2" transform="translate(45.522 39.746)" style="fill:#fff" d="M0 0h2.569v11.685H0z"/>
                <path data-name="Path 5" d="M52.005 33.792H38.661v-2.933h7.681l-7.681-10.878-9.748 13.811H4.3L28.15 0l7.968 11.286-2.4 1.695-5.568-7.892-18.187 25.77h17.43l11.268-15.967z" transform="translate(-4.107)" style="fill:#fff"/>
            </g>
        </g>
    </g>
</svg>