<svg data-name="Group 513" xmlns="http://www.w3.org/2000/svg" width="21.187" height="19.276" viewBox="0 0 21.187 19.276">
    <defs>
        <clipPath id="46co0gzsta">
            <path data-name="Rectangle 7" style="fill:#fff" d="M0 0h21.187v19.276H0z"/>
        </clipPath>
    </defs>
    <g data-name="Group 14" style="clip-path:url(#46co0gzsta)">
        <path data-name="Path 9" d="M17.828 42.891H6.112v-1.4a1.058 1.058 0 0 0-1.806-.748l-4 4a1.06 1.06 0 0 0 0 1.5l4 4a1.043 1.043 0 0 0 .741.313 1.073 1.073 0 0 0 .412-.083 1.042 1.042 0 0 0 .653-.978v-1.4h7.32a4.8 4.8 0 0 0 4.793-4.793.4.4 0 0 0-.4-.4m-4.4 4.4h-7.71a.4.4 0 0 0-.4.4v1.8a.265.265 0 0 1-.452.188l-4-4a.265.265 0 0 1 0-.375l4-4a.265.265 0 0 1 .452.187v1.8a.4.4 0 0 0 .4.4h11.7a4.006 4.006 0 0 1-3.981 3.6" transform="translate(0 -31.268)" style="fill:#fff"/>
        <path data-name="Path 10" d="m30.985 4.309-4-4a1.058 1.058 0 0 0-1.806.748v1.4h-7.32a4.8 4.8 0 0 0-4.793 4.793.4.4 0 0 0 .4.4h11.716v1.4a1.042 1.042 0 0 0 .653.977 1.071 1.071 0 0 0 .411.083 1.043 1.043 0 0 0 .742-.313l4-4a1.058 1.058 0 0 0 0-1.5m-.561.935-4 4a.265.265 0 0 1-.452-.187v-1.8a.4.4 0 0 0-.4-.4h-11.7a4.006 4.006 0 0 1 3.981-3.6h7.716a.4.4 0 0 0 .4-.4v-1.8a.265.265 0 0 1 .452-.187l4 4a.265.265 0 0 1 0 .375" transform="translate(-10.108)" style="fill:#fff"/>
    </g>
</svg>
